<?xml version="1.0" standalone="no"?>
<!DOCTYPE svg PUBLIC "-//W3C//DTD SVG 20010904//EN"
 "http://www.w3.org/TR/2001/REC-SVG-20010904/DTD/svg10.dtd">
<svg version="1.0" xmlns="http://www.w3.org/2000/svg"
 width="617.387024pt" height="830.940580pt" viewBox="0 0 617.387024 830.940580"
 preserveAspectRatio="xMidYMid meet">
<metadata>
Created by potrace 1.12, written by Peter Selinger 2001-2015
</metadata>
<g transform="translate(-194.116872,920.940580) scale(0.100000,-0.100000)"
fill="#000000" stroke="none">
<path d="M2655 9196 c-40 -18 -90 -73 -104 -115 -7 -23 -11 -175 -11 -485 0
-432 1 -453 21 -496 42 -92 93 -121 227 -128 50 -3 92 -7 92 -10 0 -3 -16 -34
-36 -70 -60 -107 -155 -217 -368 -427 -114 -111 -231 -237 -264 -283 -152
-207 -233 -405 -262 -642 -8 -70 -10 -734 -8 -2545 l3 -2450 23 -74 c80 -259
257 -445 510 -535 l87 -31 1000 -3 c550 -1 1010 0 1022 3 33 8 94 65 109 102
20 48 17 127 -6 173 -11 22 -39 52 -62 67 l-42 28 -975 5 -976 5 -58 24 c-77
30 -151 93 -193 161 -69 114 -65 -87 -61 2636 2 2313 3 2463 20 2519 16 56 47
147 52 153 1 1 22 -5 46 -13 208 -74 693 -157 1224 -211 143 -14 262 -28 264
-30 2 -2 -3 -12 -12 -22 -9 -10 -29 -44 -44 -77 -26 -55 -28 -69 -27 -175 0
-94 5 -128 25 -190 40 -119 101 -214 203 -316 134 -133 266 -194 420 -194 l67
0 -6 -57 c-4 -32 -7 -157 -8 -278 l-2 -220 27 -47 c65 -110 234 -118 313 -14
24 32 29 50 37 139 25 292 41 441 68 625 17 112 30 208 30 213 0 5 3 9 8 9 18
0 87 -522 101 -772 10 -174 17 -198 82 -250 67 -54 164 -50 229 8 61 55 64 74
57 374 l-6 265 52 3 c264 14 530 239 627 528 26 78 33 116 34 179 0 95 -12
141 -58 218 -24 39 -30 57 -20 57 32 0 362 32 529 51 375 43 840 133 997 194
14 5 21 -8 43 -75 14 -45 30 -112 35 -149 6 -41 10 -998 10 -2497 0 -2205 -1
-2435 -16 -2485 -42 -142 -140 -234 -291 -273 -53 -14 -171 -16 -924 -16 -817
0 -866 -1 -904 -19 -48 -22 -69 -44 -90 -94 -36 -87 -5 -189 73 -238 l46 -29
900 0 c871 0 904 1 986 20 273 66 492 277 577 555 17 57 18 171 18 2570 0
2726 4 2555 -57 2744 -75 234 -171 375 -432 636 -218 218 -306 314 -360 399
-35 55 -76 131 -76 141 0 3 28 5 63 5 124 0 212 44 248 125 17 37 19 75 19
490 0 279 -4 464 -10 487 -14 50 -55 97 -105 119 -38 18 -131 19 -2380 18
-1937 0 -2345 -2 -2370 -13z m4495 -586 l0 -220 -2115 0 -2115 0 0 220 0 220
2115 0 2115 0 0 -220z m-833 -617 l442 -6 22 -66 c31 -93 120 -265 186 -357
88 -124 213 -264 312 -349 50 -43 89 -80 87 -82 -9 -9 -153 -45 -266 -68 -469
-91 -1230 -136 -2205 -129 -861 6 -1404 38 -1830 110 -131 22 -370 76 -380 86
-2 1 37 37 87 78 231 190 428 460 513 702 l27 78 307 3 c710 6 2289 6 2698 0z
m-1602 -1610 c-53 -278 -111 -404 -193 -419 -152 -29 -332 169 -268 294 31 60
148 125 281 156 210 49 196 52 180 -31z m746 43 c137 -34 244 -81 295 -130 71
-68 71 -132 0 -219 -56 -69 -119 -107 -187 -113 -98 -9 -142 42 -193 222 -20
70 -56 238 -56 260 0 9 52 2 141 -20z"/>
<path d="M3785 4696 c-79 -38 -79 -39 -416 -456 -369 -456 -433 -538 -450
-575 -24 -51 -24 -121 -1 -166 10 -19 119 -156 243 -305 124 -148 304 -363
400 -479 96 -115 357 -428 579 -695 223 -267 503 -603 623 -747 119 -145 229
-271 244 -280 36 -24 128 -23 168 1 17 10 82 81 145 159 257 316 1677 2014
1874 2242 38 44 75 94 82 112 20 48 17 102 -10 158 -23 48 -190 261 -523 665
-266 325 -263 322 -332 357 l-63 33 -1256 0 -1257 0 -50 -24z m1064 -364 c-20
-24 -440 -502 -466 -529 -12 -13 -27 -23 -32 -23 -6 0 -40 62 -77 138 -66 137
-204 430 -204 435 0 1 178 1 396 -1 374 -2 395 -3 383 -20z m1241 15 c0 -5
-252 -531 -256 -536 -2 -2 -14 9 -26 25 -28 36 -381 448 -416 487 l-26 27 362
0 c199 0 362 -1 362 -3z m570 -462 c59 -77 110 -146 114 -152 6 -10 -60 -13
-314 -13 l-320 0 14 33 c7 17 64 134 125 259 l112 227 81 -107 c45 -59 129
-170 188 -247z m-2783 178 c41 -87 95 -200 119 -250 l43 -93 -326 0 c-317 0
-325 0 -312 19 51 70 393 490 397 487 2 -3 38 -76 79 -163z m1433 -109 c106
-135 190 -247 188 -250 -3 -2 -181 -3 -397 -2 l-391 3 61 75 c34 41 124 153
201 248 77 94 142 172 143 172 2 0 90 -111 195 -246z m-1068 -704 c27 -80 125
-386 219 -680 94 -294 179 -562 190 -594 10 -33 17 -61 15 -63 -2 -2 -16 13
-32 34 -16 21 -83 103 -149 183 -67 80 -188 226 -270 325 -82 99 -226 272
-320 384 -93 112 -196 236 -229 275 -32 39 -93 112 -135 161 -42 50 -83 98
-90 108 -13 16 5 17 369 15 l383 -3 49 -145z m1398 141 c0 -2 -30 -99 -66
-215 -37 -116 -81 -258 -99 -316 -18 -58 -69 -222 -115 -365 -132 -417 -247
-787 -259 -832 -7 -24 -15 -43 -19 -43 -4 0 -45 130 -91 288 -87 294 -202 672
-361 1187 -50 160 -90 292 -90 295 0 3 248 5 550 5 303 0 550 -2 550 -4z
m1130 3 c0 -3 -102 -125 -227 -271 -126 -146 -334 -391 -463 -543 -511 -601
-585 -688 -588 -686 -5 5 441 1360 487 1479 l11 27 390 0 c214 0 390 -3 390
-6z"/>
</g>
</svg>
